<?xml version="1.0" standalone="no"?>
<!DOCTYPE svg PUBLIC "-//W3C//DTD SVG 20010904//EN"
 "http://www.w3.org/TR/2001/REC-SVG-20010904/DTD/svg10.dtd">
<svg version="1.0" xmlns="http://www.w3.org/2000/svg"
 width="408.000000pt" height="408.000000pt" viewBox="0 0 408.000000 408.000000"
 preserveAspectRatio="xMidYMid meet">
<metadata>
Created by potrace 1.11, written by Peter Selinger 2001-2013
</metadata>
<g transform="translate(0.000000,408.000000) scale(0.100000,-0.100000)"
fill="#000000" stroke="none">
<path d="M1984 4047 c-27 -16 -69 -41 -94 -55 -25 -14 -216 -124 -425 -245
-209 -121 -400 -231 -425 -245 -25 -14 -74 -42 -109 -64 -34 -21 -65 -38 -66
-38 -2 0 -81 -45 -176 -101 -95 -55 -191 -111 -213 -123 -85 -48 -191 -110
-195 -113 -6 -4 -6 -2032 0 -2037 5 -5 199 -118 634 -369 182 -104 344 -198
360 -208 17 -10 46 -26 65 -37 19 -11 118 -68 220 -127 102 -59 251 -145 332
-192 l148 -85 152 88 c84 48 248 142 363 209 116 67 230 133 255 147 25 14 99
57 165 95 140 82 503 291 557 321 20 12 55 32 77 46 22 15 42 26 45 26 4 0
137 79 145 86 6 5 6 2033 0 2037 -2 2 -51 31 -109 64 -58 33 -310 178 -560
323 -250 144 -475 274 -500 288 -53 30 -369 213 -485 281 -44 26 -87 50 -96
53 -9 3 -37 -7 -65 -25z m129 -353 c34 -20 82 -48 107 -62 25 -13 81 -46 125
-72 65 -38 376 -218 591 -341 401 -230 563 -325 563 -329 0 -3 -64 -41 -142
-86 l-143 -80 -244 141 c-135 77 -399 230 -587 338 l-343 198 -161 -93 c-88
-51 -189 -109 -224 -128 -35 -19 -70 -41 -77 -48 -6 -6 -16 -12 -20 -12 -5 0
-25 -11 -46 -23 -20 -13 -57 -35 -82 -49 -56 -31 -64 -36 -335 -192 -121 -70
-222 -129 -225 -132 -3 -3 -5 -309 -5 -681 l0 -675 25 -18 c14 -9 45 -28 70
-42 25 -14 191 -110 370 -213 179 -103 344 -198 367 -211 23 -13 108 -62 188
-109 81 -47 151 -85 155 -85 5 0 62 31 127 69 65 37 208 120 318 183 110 64
318 183 462 267 144 83 264 151 267 151 16 0 286 -164 279 -170 -7 -6 -1239
-718 -1366 -789 -21 -12 -49 -28 -61 -37 -22 -14 -31 -10 -172 71 -82 48 -156
90 -164 96 -12 7 -188 108 -375 215 -22 12 -206 119 -410 236 l-370 214 -2
845 -2 845 22 14 c12 8 63 37 112 65 50 29 194 112 320 185 127 73 286 166
355 205 191 110 444 256 550 318 52 31 101 56 108 57 8 0 41 -16 75 -36z m43
-703 c65 -37 175 -101 244 -141 69 -39 143 -82 165 -95 22 -12 110 -63 195
-112 l155 -89 2 -510 3 -509 -143 -83 c-78 -45 -143 -78 -145 -74 -1 5 -4 233
-5 508 l-2 499 -245 142 c-135 79 -267 155 -295 169 l-50 26 -50 -30 c-27 -17
-63 -38 -80 -47 -16 -8 -124 -71 -240 -138 l-210 -122 -2 -503 c-1 -277 -3
-505 -5 -507 -2 -2 -51 24 -108 57 -58 33 -122 70 -143 81 l-37 21 2 509 3
509 345 200 c190 110 370 214 400 231 42 23 100 58 126 76 0 1 54 -30 120 -68z
m-18 -667 c53 -31 118 -69 145 -83 l47 -26 1 -77 c0 -43 0 -109 0 -148 0 -114
1 -110 -18 -103 -10 4 -45 23 -78 43 -33 20 -91 53 -128 74 l-68 37 -141 -81
c-78 -44 -143 -79 -144 -77 -5 4 -6 328 -2 331 2 2 46 27 98 57 52 29 115 66
139 81 25 16 47 28 48 28 2 0 48 -25 101 -56z"/>
</g>
</svg>
